<svg width="1221" height="343" viewBox="0 0 1221 343" fill="none" xmlns="http://www.w3.org/2000/svg">
<path d="M92.2848 11.9458L88.9437 8.27602C86.1415 5.19822 81.0252 6.69177 80.319 10.7938L25.7494 327.741C25.4338 329.575 26.1621 331.432 27.64 332.562L32.3472 336.161C35.3396 338.449 39.6915 336.732 40.3152 333.017L93.5186 16.1398C93.7727 14.6265 93.3179 13.0804 92.2848 11.9458Z" fill="#20447B"/>
<path d="M18 327.521C18 332.491 13.9706 336.521 9 336.521C4.02944 336.521 0 332.491 0 327.521C0 322.55 4.02944 318.521 9 318.521C13.9706 318.521 18 322.55 18 327.521Z" fill="#20447B"/>
<path d="M237.996 5.69571L102.496 74.1957C90.207 79.1957 86.207 92.6957 93.9964 102.196L171.996 204.696C171.996 204.696 182.496 221.292 182.496 204.696V186.696C182.496 186.696 182.496 178.292 168.496 163.696L121.496 102.196C121.496 102.196 118.496 89.7917 128.496 84.6957L207.996 41.6957C207.996 41.6957 225.496 30.7917 218.496 48.1957L195.996 92.6957C195.996 92.6957 191.707 102.196 199.496 102.196L209.707 100.292C209.707 100.292 218.496 96.6957 225.496 79.1957L253.496 19.1957C253.496 19.1957 263.707 -6.20826 237.996 5.69571Z" fill="#20447B"/>
<path d="M253.496 198.196L168.496 106.696C160.707 96.7917 155.207 97.2917 152.496 102.196V111.696C152.496 111.696 152.496 120.792 163.496 132.696L221.996 198.196C221.996 198.196 237.996 213.292 218.496 229.196L152.496 294.196C152.496 294.196 143.207 301.792 139.496 287.696L135.496 234.196C135.496 234.196 135.496 214.792 145.996 229.196L152.496 246.196C152.496 246.196 159.207 260.292 163.496 241.696V229.196C163.496 229.196 163.496 221.292 152.496 208.196L135.496 182.696C135.496 182.696 124.207 173.792 118.496 186.696L121.496 324.196C121.496 324.196 121.496 345.292 139.496 331.696L253.496 229.196C253.496 229.196 264.207 215.792 253.496 198.196Z" fill="#20447B"/>
<path d="M301.44 146C299.627 146 298.133 145.573 296.96 144.72C295.893 143.76 295.36 142.64 295.36 141.36V33.68C295.36 32.4 295.893 31.3333 296.96 30.48C298.133 29.52 299.627 29.04 301.44 29.04H329.76C336.267 29.04 342.133 30.2133 347.36 32.56C352.587 34.8 356.693 38.48 359.68 43.6C362.773 48.6133 364.32 55.3867 364.32 63.92V111.12C364.32 119.653 362.773 126.48 359.68 131.6C356.693 136.613 352.587 140.293 347.36 142.64C342.133 144.88 336.267 146 329.76 146H301.44ZM308.8 133.84H329.76C336.373 133.84 341.547 132.027 345.28 128.4C349.013 124.667 350.88 118.907 350.88 111.12V63.92C350.88 56.1333 349.013 50.4267 345.28 46.8C341.547 43.0667 336.373 41.2 329.76 41.2H308.8V133.84ZM384.705 146C383.105 146 381.558 145.627 380.065 144.88C378.678 144.027 377.985 142.8 377.985 141.2V33.68C377.985 32.08 378.678 30.9067 380.065 30.16C381.558 29.4133 383.105 29.04 384.705 29.04C386.412 29.04 387.958 29.4133 389.345 30.16C390.732 30.9067 391.425 32.08 391.425 33.68V141.2C391.425 142.8 390.732 144.027 389.345 144.88C387.958 145.627 386.412 146 384.705 146ZM439.515 146.96C433.008 146.96 427.142 145.84 421.915 143.6C416.795 141.253 412.688 137.52 409.595 132.4C406.608 127.28 405.115 120.507 405.115 112.08V63.92C405.115 55.4933 406.608 48.72 409.595 43.6C412.688 38.48 416.795 34.8 421.915 32.56C427.142 30.2133 432.902 29.04 439.195 29.04C446.235 29.04 452.315 30.2667 457.435 32.72C462.662 35.0667 466.715 38.3733 469.595 42.64C472.582 46.9067 474.075 51.92 474.075 57.68C474.075 60.24 473.488 62 472.315 62.96C471.142 63.8133 469.488 64.24 467.355 64.24C465.542 64.24 463.995 63.92 462.715 63.28C461.435 62.5333 460.742 61.3067 460.635 59.6C460.208 55.8667 459.248 52.6667 457.755 50C456.262 47.2267 454.022 45.0933 451.035 43.6C448.048 42 444.208 41.2 439.515 41.2C432.902 41.2 427.728 43.0667 423.995 46.8C420.368 50.4267 418.555 56.1333 418.555 63.92V112.08C418.555 119.867 420.368 125.627 423.995 129.36C427.728 132.987 432.902 134.8 439.515 134.8C446.128 134.8 451.302 132.987 455.035 129.36C458.768 125.627 460.635 119.867 460.635 112.08V95.76H441.595C440.102 95.76 438.928 95.1733 438.075 94C437.328 92.8267 436.955 91.5467 436.955 90.16C436.955 88.7733 437.328 87.4933 438.075 86.32C438.928 85.1467 440.102 84.56 441.595 84.56H469.435C470.928 84.56 472.048 85.04 472.795 86C473.648 86.96 474.075 88.1333 474.075 89.52V112.08C474.075 120.507 472.528 127.28 469.435 132.4C466.448 137.52 462.342 141.253 457.115 143.6C451.888 145.84 446.022 146.96 439.515 146.96ZM492.611 146C491.011 146 489.465 145.627 487.971 144.88C486.585 144.027 485.891 142.8 485.891 141.2V33.68C485.891 32.08 486.585 30.9067 487.971 30.16C489.465 29.4133 491.011 29.04 492.611 29.04C494.318 29.04 495.865 29.4133 497.251 30.16C498.638 30.9067 499.331 32.08 499.331 33.68V141.2C499.331 142.8 498.638 144.027 497.251 144.88C495.865 145.627 494.318 146 492.611 146ZM541.981 146C540.275 146 538.728 145.627 537.341 144.88C535.955 144.027 535.261 142.8 535.261 141.2V41.52H509.341C507.955 41.52 506.835 40.88 505.981 39.6C505.128 38.32 504.701 36.8267 504.701 35.12C504.701 33.6267 505.075 32.24 505.821 30.96C506.568 29.68 507.741 29.04 509.341 29.04H574.621C576.221 29.04 577.395 29.68 578.141 30.96C578.888 32.24 579.261 33.6267 579.261 35.12C579.261 36.72 578.888 38.2133 578.141 39.6C577.395 40.88 576.221 41.52 574.621 41.52H548.701V141.2C548.701 142.8 548.008 144.027 546.621 144.88C545.235 145.627 543.688 146 541.981 146ZM574.72 146C573.653 146 572.427 145.787 571.04 145.36C569.76 144.827 568.693 144.133 567.84 143.28C567.093 142.427 566.72 141.467 566.72 140.4C566.72 139.973 566.773 139.547 566.88 139.12L599.68 32.72C600.107 31.12 601.12 29.9467 602.72 29.2C604.32 28.4533 606.027 28.08 607.84 28.08C609.76 28.08 611.52 28.5067 613.12 29.36C614.72 30.1067 615.733 31.2267 616.16 32.72L648.8 139.12C649.013 139.547 649.12 139.92 649.12 140.24C649.12 141.307 648.64 142.267 647.68 143.12C646.827 143.973 645.76 144.667 644.48 145.2C643.2 145.733 641.973 146 640.8 146C639.627 146 638.613 145.787 637.76 145.36C636.907 144.827 636.32 144.027 636 142.96L628.8 119.12H586.72L579.84 142.96C579.52 144.027 578.88 144.827 577.92 145.36C577.067 145.787 576 146 574.72 146ZM589.92 108.08H625.76L607.84 47.92L589.92 108.08ZM661.096 146C659.603 146 658.216 145.627 656.936 144.88C655.656 144.027 655.016 142.8 655.016 141.2V33.68C655.016 32.08 655.71 30.9067 657.096 30.16C658.59 29.4133 660.136 29.04 661.736 29.04C663.443 29.04 664.99 29.4133 666.376 30.16C667.763 30.9067 668.456 32.08 668.456 33.68V133.84H712.296C713.79 133.84 714.856 134.48 715.496 135.76C716.243 136.933 716.616 138.32 716.616 139.92C716.616 141.413 716.243 142.8 715.496 144.08C714.856 145.36 713.79 146 712.296 146H661.096ZM779.171 146.96C772.665 146.96 766.798 145.84 761.571 143.6C756.451 141.253 752.345 137.52 749.251 132.4C746.265 127.28 744.771 120.507 744.771 112.08V63.92C744.771 55.4933 746.265 48.72 749.251 43.6C752.345 38.48 756.451 34.8 761.571 32.56C766.798 30.2133 772.558 29.04 778.851 29.04C785.891 29.04 791.971 30.2667 797.091 32.72C802.318 35.0667 806.371 38.3733 809.251 42.64C812.238 46.9067 813.731 51.92 813.731 57.68C813.731 60.24 813.145 62 811.971 62.96C810.798 63.8133 809.145 64.24 807.011 64.24C805.198 64.24 803.651 63.92 802.371 63.28C801.091 62.5333 800.398 61.3067 800.291 59.6C799.865 55.8667 798.905 52.6667 797.411 50C795.918 47.2267 793.678 45.0933 790.691 43.6C787.705 42 783.865 41.2 779.171 41.2C772.558 41.2 767.385 43.0667 763.651 46.8C760.025 50.4267 758.211 56.1333 758.211 63.92V112.08C758.211 119.867 760.025 125.627 763.651 129.36C767.385 132.987 772.558 134.8 779.171 134.8C785.785 134.8 790.958 132.987 794.691 129.36C798.425 125.627 800.291 119.867 800.291 112.08V95.76H781.251C779.758 95.76 778.585 95.1733 777.731 94C776.985 92.8267 776.611 91.5467 776.611 90.16C776.611 88.7733 776.985 87.4933 777.731 86.32C778.585 85.1467 779.758 84.56 781.251 84.56H809.091C810.585 84.56 811.705 85.04 812.451 86C813.305 86.96 813.731 88.1333 813.731 89.52V112.08C813.731 120.507 812.185 127.28 809.091 132.4C806.105 137.52 801.998 141.253 796.771 143.6C791.545 145.84 785.678 146.96 779.171 146.96ZM831.628 146C830.134 146 828.748 145.627 827.468 144.88C826.188 144.027 825.548 142.8 825.548 141.2V33.84C825.548 32.24 826.188 31.0667 827.468 30.32C828.748 29.4667 830.134 29.04 831.628 29.04H888.588C890.294 29.04 891.468 29.68 892.108 30.96C892.854 32.24 893.228 33.5733 893.228 34.96C893.228 36.56 892.801 38 891.948 39.28C891.201 40.56 890.081 41.2 888.588 41.2H838.988V81.84H863.948C865.441 81.84 866.561 82.4267 867.308 83.6C868.161 84.7733 868.588 86.1067 868.588 87.6C868.588 88.88 868.214 90.1067 867.468 91.28C866.828 92.4533 865.654 93.04 863.948 93.04H838.988V133.84H888.588C890.081 133.84 891.201 134.48 891.948 135.76C892.801 136.933 893.228 138.373 893.228 140.08C893.228 141.467 892.854 142.8 892.108 144.08C891.468 145.36 890.294 146 888.588 146H831.628ZM906.455 146C904.855 146 903.308 145.627 901.815 144.88C900.428 144.027 899.735 142.8 899.735 141.2V33.68C899.735 31.9733 900.428 30.8 901.815 30.16C903.308 29.4133 904.855 29.04 906.455 29.04C908.162 29.04 909.602 29.36 910.775 30C911.948 30.64 913.015 31.6 913.975 32.88C914.935 34.0533 915.895 35.6 916.855 37.52L956.535 115.44V33.68C956.535 32.08 957.228 30.9067 958.615 30.16C960.108 29.4133 961.655 29.04 963.255 29.04C964.962 29.04 966.508 29.4133 967.895 30.16C969.282 30.9067 969.975 32.08 969.975 33.68V141.2C969.975 142.8 969.282 144.027 967.895 144.88C966.508 145.627 964.962 146 963.255 146C961.548 146 959.948 145.413 958.455 144.24C957.068 143.067 955.895 141.627 954.935 139.92L913.175 59.44V141.2C913.175 142.8 912.482 144.027 911.095 144.88C909.708 145.627 908.162 146 906.455 146ZM991.58 146C989.98 146 988.433 145.627 986.94 144.88C985.553 144.027 984.86 142.8 984.86 141.2V33.68C984.86 32.08 985.553 30.9067 986.94 30.16C988.433 29.4133 989.98 29.04 991.58 29.04C993.287 29.04 994.833 29.4133 996.22 30.16C997.607 30.9067 998.3 32.08 998.3 33.68V141.2C998.3 142.8 997.607 144.027 996.22 144.88C994.833 145.627 993.287 146 991.58 146ZM1047.51 146.96C1040.9 146.96 1034.98 145.84 1029.75 143.6C1024.52 141.253 1020.36 137.573 1017.27 132.56C1014.18 127.44 1012.63 120.613 1012.63 112.08V33.68C1012.63 32.08 1013.27 30.9067 1014.55 30.16C1015.94 29.4133 1017.54 29.04 1019.35 29.04C1021.06 29.04 1022.6 29.4133 1023.99 30.16C1025.38 30.9067 1026.07 32.08 1026.07 33.68V112.08C1026.07 119.867 1027.94 125.627 1031.67 129.36C1035.4 132.987 1040.68 134.8 1047.51 134.8C1054.23 134.8 1059.46 132.987 1063.19 129.36C1067.03 125.627 1068.95 119.867 1068.95 112.08V33.68C1068.95 32.08 1069.64 30.9067 1071.03 30.16C1072.42 29.4133 1073.96 29.04 1075.67 29.04C1077.38 29.04 1078.92 29.4133 1080.31 30.16C1081.7 30.9067 1082.39 32.08 1082.39 33.68V112.08C1082.39 120.613 1080.84 127.44 1077.75 132.56C1074.66 137.573 1070.44 141.253 1065.11 143.6C1059.88 145.84 1054.02 146.96 1047.51 146.96ZM1124.51 147.28C1117.69 147.28 1111.71 146.267 1106.59 144.24C1101.47 142.107 1097.53 139.653 1094.75 136.88C1091.98 134 1090.59 131.44 1090.59 129.2C1090.59 128.133 1090.86 127.067 1091.39 126C1092.03 124.827 1092.78 123.867 1093.63 123.12C1094.59 122.267 1095.55 121.84 1096.51 121.84C1097.79 121.84 1099.02 122.48 1100.19 123.76C1101.47 125.04 1103.02 126.587 1104.83 128.4C1106.75 130.107 1109.21 131.6 1112.19 132.88C1115.18 134.16 1119.07 134.8 1123.87 134.8C1128.35 134.8 1132.25 134.107 1135.55 132.72C1138.86 131.227 1141.42 129.04 1143.23 126.16C1145.15 123.173 1146.11 119.44 1146.11 114.96C1146.11 110.373 1145.15 106.64 1143.23 103.76C1141.31 100.88 1138.75 98.48 1135.55 96.56C1132.46 94.64 1129.05 92.9333 1125.31 91.44C1121.69 89.9467 1117.95 88.4533 1114.11 86.96C1110.38 85.36 1106.97 83.44 1103.87 81.2C1100.78 78.8533 1098.27 75.8667 1096.35 72.24C1094.43 68.6133 1093.47 64.0267 1093.47 58.48C1093.47 52.6133 1094.54 47.76 1096.67 43.92C1098.81 40.08 1101.63 37.04 1105.15 34.8C1108.67 32.56 1112.46 31.0133 1116.51 30.16C1120.67 29.2 1124.73 28.72 1128.67 28.72C1131.55 28.72 1134.59 28.9333 1137.79 29.36C1140.99 29.7867 1144.03 30.4267 1146.91 31.28C1149.79 32.1333 1152.14 33.2533 1153.95 34.64C1155.77 35.92 1156.67 37.4667 1156.67 39.28C1156.67 40.1333 1156.46 41.1467 1156.03 42.32C1155.61 43.3867 1154.97 44.4 1154.11 45.36C1153.26 46.2133 1152.19 46.64 1150.91 46.64C1149.74 46.64 1148.3 46.16 1146.59 45.2C1144.89 44.1333 1142.59 43.12 1139.71 42.16C1136.94 41.0933 1133.26 40.56 1128.67 40.56C1124.83 40.56 1121.21 41.0933 1117.79 42.16C1114.49 43.2267 1111.82 44.9867 1109.79 47.44C1107.87 49.8933 1106.91 53.1467 1106.91 57.2C1106.91 61.04 1107.87 64.1867 1109.79 66.64C1111.71 69.0933 1114.22 71.12 1117.31 72.72C1120.41 74.32 1123.82 75.8133 1127.55 77.2C1131.29 78.48 1135.02 80.0267 1138.75 81.84C1142.49 83.5467 1145.9 85.68 1148.99 88.24C1152.19 90.8 1154.75 94.16 1156.67 98.32C1158.59 102.373 1159.55 107.493 1159.55 113.68C1159.55 121.36 1158.01 127.707 1154.91 132.72C1151.93 137.627 1147.82 141.307 1142.59 143.76C1137.37 146.107 1131.34 147.28 1124.51 147.28ZM323.2 307.28C316.373 307.28 310.4 306.267 305.28 304.24C300.16 302.107 296.213 299.653 293.44 296.88C290.667 294 289.28 291.44 289.28 289.2C289.28 288.133 289.547 287.067 290.08 286C290.72 284.827 291.467 283.867 292.32 283.12C293.28 282.267 294.24 281.84 295.2 281.84C296.48 281.84 297.707 282.48 298.88 283.76C300.16 285.04 301.707 286.587 303.52 288.4C305.44 290.107 307.893 291.6 310.88 292.88C313.867 294.16 317.76 294.8 322.56 294.8C327.04 294.8 330.933 294.107 334.24 292.72C337.547 291.227 340.107 289.04 341.92 286.16C343.84 283.173 344.8 279.44 344.8 274.96C344.8 270.373 343.84 266.64 341.92 263.76C340 260.88 337.44 258.48 334.24 256.56C331.147 254.64 327.733 252.933 324 251.44C320.373 249.947 316.64 248.453 312.8 246.96C309.067 245.36 305.653 243.44 302.56 241.2C299.467 238.853 296.96 235.867 295.04 232.24C293.12 228.613 292.16 224.027 292.16 218.48C292.16 212.613 293.227 207.76 295.36 203.92C297.493 200.08 300.32 197.04 303.84 194.8C307.36 192.56 311.147 191.013 315.2 190.16C319.36 189.2 323.413 188.72 327.36 188.72C330.24 188.72 333.28 188.933 336.48 189.36C339.68 189.787 342.72 190.427 345.6 191.28C348.48 192.133 350.827 193.253 352.64 194.64C354.453 195.92 355.36 197.467 355.36 199.28C355.36 200.133 355.147 201.147 354.72 202.32C354.293 203.387 353.653 204.4 352.8 205.36C351.947 206.213 350.88 206.64 349.6 206.64C348.427 206.64 346.987 206.16 345.28 205.2C343.573 204.133 341.28 203.12 338.4 202.16C335.627 201.093 331.947 200.56 327.36 200.56C323.52 200.56 319.893 201.093 316.48 202.16C313.173 203.227 310.507 204.987 308.48 207.44C306.56 209.893 305.6 213.147 305.6 217.2C305.6 221.04 306.56 224.187 308.48 226.64C310.4 229.093 312.907 231.12 316 232.72C319.093 234.32 322.507 235.813 326.24 237.2C329.973 238.48 333.707 240.027 337.44 241.84C341.173 243.547 344.587 245.68 347.68 248.24C350.88 250.8 353.44 254.16 355.36 258.32C357.28 262.373 358.24 267.493 358.24 273.68C358.24 281.36 356.693 287.707 353.6 292.72C350.613 297.627 346.507 301.307 341.28 303.76C336.053 306.107 330.027 307.28 323.2 307.28ZM400.953 306.96C394.446 306.96 388.579 305.84 383.353 303.6C378.233 301.253 374.126 297.573 371.033 292.56C368.046 287.44 366.553 280.613 366.553 272.08V223.92C366.553 215.387 368.046 208.613 371.033 203.6C374.126 198.48 378.233 194.8 383.353 192.56C388.579 190.213 394.446 189.04 400.953 189.04C407.459 189.04 413.326 190.213 418.553 192.56C423.779 194.8 427.886 198.48 430.873 203.6C433.966 208.613 435.513 215.387 435.513 223.92V272.08C435.513 280.613 433.966 287.44 430.873 292.56C427.886 297.573 423.779 301.253 418.553 303.6C413.326 305.84 407.459 306.96 400.953 306.96ZM400.953 294.8C407.566 294.8 412.739 292.987 416.473 289.36C420.206 285.627 422.073 279.867 422.073 272.08V223.92C422.073 216.133 420.206 210.427 416.473 206.8C412.739 203.067 407.566 201.2 400.953 201.2C394.339 201.2 389.166 203.067 385.433 206.8C381.806 210.427 379.993 216.133 379.993 223.92V272.08C379.993 279.867 381.806 285.627 385.433 289.36C389.166 292.987 394.339 294.8 400.953 294.8ZM455.128 306C453.634 306 452.248 305.627 450.968 304.88C449.688 304.027 449.048 302.8 449.048 301.2V193.68C449.048 192.08 449.741 190.907 451.128 190.16C452.621 189.413 454.168 189.04 455.768 189.04C457.474 189.04 459.021 189.413 460.408 190.16C461.794 190.907 462.488 192.08 462.488 193.68V293.84H506.328C507.821 293.84 508.888 294.48 509.528 295.76C510.274 296.933 510.648 298.32 510.648 299.92C510.648 301.413 510.274 302.8 509.528 304.08C508.888 305.36 507.821 306 506.328 306H455.128ZM547.01 306.96C540.397 306.96 534.477 305.84 529.25 303.6C524.023 301.253 519.863 297.573 516.77 292.56C513.677 287.44 512.13 280.613 512.13 272.08V193.68C512.13 192.08 512.77 190.907 514.05 190.16C515.437 189.413 517.037 189.04 518.85 189.04C520.557 189.04 522.103 189.413 523.49 190.16C524.877 190.907 525.57 192.08 525.57 193.68V272.08C525.57 279.867 527.437 285.627 531.17 289.36C534.903 292.987 540.183 294.8 547.01 294.8C553.73 294.8 558.957 292.987 562.69 289.36C566.53 285.627 568.45 279.867 568.45 272.08V193.68C568.45 192.08 569.143 190.907 570.53 190.16C571.917 189.413 573.463 189.04 575.17 189.04C576.877 189.04 578.423 189.413 579.81 190.16C581.197 190.907 581.89 192.08 581.89 193.68V272.08C581.89 280.613 580.343 287.44 577.25 292.56C574.157 297.573 569.943 301.253 564.61 303.6C559.383 305.84 553.517 306.96 547.01 306.96ZM624.013 306C622.306 306 620.759 305.627 619.373 304.88C617.986 304.027 617.293 302.8 617.293 301.2V201.52H591.373C589.986 201.52 588.866 200.88 588.013 199.6C587.159 198.32 586.733 196.827 586.733 195.12C586.733 193.627 587.106 192.24 587.853 190.96C588.599 189.68 589.773 189.04 591.373 189.04H656.653C658.253 189.04 659.426 189.68 660.173 190.96C660.919 192.24 661.293 193.627 661.293 195.12C661.293 196.72 660.919 198.213 660.173 199.6C659.426 200.88 658.253 201.52 656.653 201.52H630.733V301.2C630.733 302.8 630.039 304.027 628.653 304.88C627.266 305.627 625.719 306 624.013 306ZM673.33 306C671.73 306 670.183 305.627 668.69 304.88C667.303 304.027 666.61 302.8 666.61 301.2V193.68C666.61 192.08 667.303 190.907 668.69 190.16C670.183 189.413 671.73 189.04 673.33 189.04C675.037 189.04 676.583 189.413 677.97 190.16C679.357 190.907 680.05 192.08 680.05 193.68V301.2C680.05 302.8 679.357 304.027 677.97 304.88C676.583 305.627 675.037 306 673.33 306ZM728.14 306.96C721.633 306.96 715.767 305.84 710.54 303.6C705.42 301.253 701.313 297.573 698.22 292.56C695.233 287.44 693.74 280.613 693.74 272.08V223.92C693.74 215.387 695.233 208.613 698.22 203.6C701.313 198.48 705.42 194.8 710.54 192.56C715.767 190.213 721.633 189.04 728.14 189.04C734.647 189.04 740.513 190.213 745.74 192.56C750.967 194.8 755.073 198.48 758.06 203.6C761.153 208.613 762.7 215.387 762.7 223.92V272.08C762.7 280.613 761.153 287.44 758.06 292.56C755.073 297.573 750.967 301.253 745.74 303.6C740.513 305.84 734.647 306.96 728.14 306.96ZM728.14 294.8C734.753 294.8 739.927 292.987 743.66 289.36C747.393 285.627 749.26 279.867 749.26 272.08V223.92C749.26 216.133 747.393 210.427 743.66 206.8C739.927 203.067 734.753 201.2 728.14 201.2C721.527 201.2 716.353 203.067 712.62 206.8C708.993 210.427 707.18 216.133 707.18 223.92V272.08C707.18 279.867 708.993 285.627 712.62 289.36C716.353 292.987 721.527 294.8 728.14 294.8ZM782.955 306C781.355 306 779.808 305.627 778.315 304.88C776.928 304.027 776.235 302.8 776.235 301.2V193.68C776.235 191.973 776.928 190.8 778.315 190.16C779.808 189.413 781.355 189.04 782.955 189.04C784.662 189.04 786.102 189.36 787.275 190C788.448 190.64 789.515 191.6 790.475 192.88C791.435 194.053 792.395 195.6 793.355 197.52L833.035 275.44V193.68C833.035 192.08 833.728 190.907 835.115 190.16C836.608 189.413 838.155 189.04 839.755 189.04C841.462 189.04 843.008 189.413 844.395 190.16C845.782 190.907 846.475 192.08 846.475 193.68V301.2C846.475 302.8 845.782 304.027 844.395 304.88C843.008 305.627 841.462 306 839.755 306C838.048 306 836.448 305.413 834.955 304.24C833.568 303.067 832.395 301.627 831.435 299.92L789.675 219.44V301.2C789.675 302.8 788.982 304.027 787.595 304.88C786.208 305.627 784.662 306 782.955 306ZM889.2 307.28C882.373 307.28 876.4 306.267 871.28 304.24C866.16 302.107 862.213 299.653 859.44 296.88C856.667 294 855.28 291.44 855.28 289.2C855.28 288.133 855.547 287.067 856.08 286C856.72 284.827 857.467 283.867 858.32 283.12C859.28 282.267 860.24 281.84 861.2 281.84C862.48 281.84 863.707 282.48 864.88 283.76C866.16 285.04 867.707 286.587 869.52 288.4C871.44 290.107 873.893 291.6 876.88 292.88C879.867 294.16 883.76 294.8 888.56 294.8C893.04 294.8 896.933 294.107 900.24 292.72C903.547 291.227 906.107 289.04 907.92 286.16C909.84 283.173 910.8 279.44 910.8 274.96C910.8 270.373 909.84 266.64 907.92 263.76C906 260.88 903.44 258.48 900.24 256.56C897.147 254.64 893.733 252.933 890 251.44C886.373 249.947 882.64 248.453 878.8 246.96C875.067 245.36 871.653 243.44 868.56 241.2C865.467 238.853 862.96 235.867 861.04 232.24C859.12 228.613 858.16 224.027 858.16 218.48C858.16 212.613 859.227 207.76 861.36 203.92C863.493 200.08 866.32 197.04 869.84 194.8C873.36 192.56 877.147 191.013 881.2 190.16C885.36 189.2 889.413 188.72 893.36 188.72C896.24 188.72 899.28 188.933 902.48 189.36C905.68 189.787 908.72 190.427 911.6 191.28C914.48 192.133 916.827 193.253 918.64 194.64C920.453 195.92 921.36 197.467 921.36 199.28C921.36 200.133 921.147 201.147 920.72 202.32C920.293 203.387 919.653 204.4 918.8 205.36C917.947 206.213 916.88 206.64 915.6 206.64C914.427 206.64 912.987 206.16 911.28 205.2C909.573 204.133 907.28 203.12 904.4 202.16C901.627 201.093 897.947 200.56 893.36 200.56C889.52 200.56 885.893 201.093 882.48 202.16C879.173 203.227 876.507 204.987 874.48 207.44C872.56 209.893 871.6 213.147 871.6 217.2C871.6 221.04 872.56 224.187 874.48 226.64C876.4 229.093 878.907 231.12 882 232.72C885.093 234.32 888.507 235.813 892.24 237.2C895.973 238.48 899.707 240.027 903.44 241.84C907.173 243.547 910.587 245.68 913.68 248.24C916.88 250.8 919.44 254.16 921.36 258.32C923.28 262.373 924.24 267.493 924.24 273.68C924.24 281.36 922.693 287.707 919.6 292.72C916.613 297.627 912.507 301.307 907.28 303.76C902.053 306.107 896.027 307.28 889.2 307.28Z" fill="#20447B"/>
</svg>
