<svg width="1131" height="335" viewBox="0 0 1131 335" fill="none" xmlns="http://www.w3.org/2000/svg">
<path d="M147.996 3.69571L12.4964 72.1957C0.20703 77.1957 -3.79296 90.6957 3.99636 100.196L81.9964 202.696C81.9964 202.696 92.4964 219.292 92.4964 202.696V184.696C92.4964 184.696 92.4964 176.292 78.4964 161.696L31.4964 100.196C31.4964 100.196 28.4963 87.7917 38.4964 82.6957L117.996 39.6957C117.996 39.6957 135.496 28.7917 128.496 46.1957L105.996 90.6957C105.996 90.6957 101.707 100.196 109.496 100.196L119.707 98.2917C119.707 98.2917 128.496 94.6957 135.496 77.1957L163.496 17.1957C163.496 17.1957 173.707 -8.20826 147.996 3.69571Z" fill="white"/>
<path d="M163.496 196.196L78.4964 104.696C70.707 94.7917 65.207 95.2917 62.4963 100.196V109.696C62.4963 109.696 62.4963 118.792 73.4964 130.696L131.996 196.196C131.996 196.196 147.996 211.292 128.496 227.196L62.4963 292.196C62.4963 292.196 53.207 299.792 49.4963 285.696L45.4963 232.196C45.4963 232.196 45.4963 212.792 55.9963 227.196L62.4963 244.196C62.4963 244.196 69.207 258.292 73.4964 239.696V227.196C73.4964 227.196 73.4964 219.292 62.4963 206.196L45.4963 180.696C45.4963 180.696 34.207 171.792 28.4963 184.696L31.4964 322.196C31.4964 322.196 31.4964 343.292 49.4963 329.696L163.496 227.196C163.496 227.196 174.207 213.792 163.496 196.196Z" fill="white"/>
<path d="M211.44 144C209.627 144 208.133 143.573 206.96 142.72C205.893 141.76 205.36 140.64 205.36 139.36V31.68C205.36 30.4 205.893 29.3333 206.96 28.48C208.133 27.52 209.627 27.04 211.44 27.04H239.76C246.267 27.04 252.133 28.2133 257.36 30.56C262.587 32.8 266.693 36.48 269.68 41.6C272.773 46.6133 274.32 53.3867 274.32 61.92V109.12C274.32 117.653 272.773 124.48 269.68 129.6C266.693 134.613 262.587 138.293 257.36 140.64C252.133 142.88 246.267 144 239.76 144H211.44ZM218.8 131.84H239.76C246.373 131.84 251.547 130.027 255.28 126.4C259.013 122.667 260.88 116.907 260.88 109.12V61.92C260.88 54.1333 259.013 48.4267 255.28 44.8C251.547 41.0667 246.373 39.2 239.76 39.2H218.8V131.84ZM294.705 144C293.105 144 291.558 143.627 290.065 142.88C288.678 142.027 287.985 140.8 287.985 139.2V31.68C287.985 30.08 288.678 28.9067 290.065 28.16C291.558 27.4133 293.105 27.04 294.705 27.04C296.412 27.04 297.958 27.4133 299.345 28.16C300.732 28.9067 301.425 30.08 301.425 31.68V139.2C301.425 140.8 300.732 142.027 299.345 142.88C297.958 143.627 296.412 144 294.705 144ZM349.515 144.96C343.008 144.96 337.142 143.84 331.915 141.6C326.795 139.253 322.688 135.52 319.595 130.4C316.608 125.28 315.115 118.507 315.115 110.08V61.92C315.115 53.4933 316.608 46.72 319.595 41.6C322.688 36.48 326.795 32.8 331.915 30.56C337.142 28.2133 342.902 27.04 349.195 27.04C356.235 27.04 362.315 28.2667 367.435 30.72C372.662 33.0667 376.715 36.3733 379.595 40.64C382.582 44.9067 384.075 49.92 384.075 55.68C384.075 58.24 383.488 60 382.315 60.96C381.142 61.8133 379.488 62.24 377.355 62.24C375.542 62.24 373.995 61.92 372.715 61.28C371.435 60.5333 370.742 59.3067 370.635 57.6C370.208 53.8667 369.248 50.6667 367.755 48C366.262 45.2267 364.022 43.0933 361.035 41.6C358.048 40 354.208 39.2 349.515 39.2C342.902 39.2 337.728 41.0667 333.995 44.8C330.368 48.4267 328.555 54.1333 328.555 61.92V110.08C328.555 117.867 330.368 123.627 333.995 127.36C337.728 130.987 342.902 132.8 349.515 132.8C356.128 132.8 361.302 130.987 365.035 127.36C368.768 123.627 370.635 117.867 370.635 110.08V93.76H351.595C350.102 93.76 348.928 93.1733 348.075 92C347.328 90.8267 346.955 89.5467 346.955 88.16C346.955 86.7733 347.328 85.4933 348.075 84.32C348.928 83.1467 350.102 82.56 351.595 82.56H379.435C380.928 82.56 382.048 83.04 382.795 84C383.648 84.96 384.075 86.1333 384.075 87.52V110.08C384.075 118.507 382.528 125.28 379.435 130.4C376.448 135.52 372.342 139.253 367.115 141.6C361.888 143.84 356.022 144.96 349.515 144.96ZM402.611 144C401.011 144 399.465 143.627 397.971 142.88C396.585 142.027 395.891 140.8 395.891 139.2V31.68C395.891 30.08 396.585 28.9067 397.971 28.16C399.465 27.4133 401.011 27.04 402.611 27.04C404.318 27.04 405.865 27.4133 407.251 28.16C408.638 28.9067 409.331 30.08 409.331 31.68V139.2C409.331 140.8 408.638 142.027 407.251 142.88C405.865 143.627 404.318 144 402.611 144ZM451.981 144C450.275 144 448.728 143.627 447.341 142.88C445.955 142.027 445.261 140.8 445.261 139.2V39.52H419.341C417.955 39.52 416.835 38.88 415.981 37.6C415.128 36.32 414.701 34.8267 414.701 33.12C414.701 31.6267 415.075 30.24 415.821 28.96C416.568 27.68 417.741 27.04 419.341 27.04H484.621C486.221 27.04 487.395 27.68 488.141 28.96C488.888 30.24 489.261 31.6267 489.261 33.12C489.261 34.72 488.888 36.2133 488.141 37.6C487.395 38.88 486.221 39.52 484.621 39.52H458.701V139.2C458.701 140.8 458.008 142.027 456.621 142.88C455.235 143.627 453.688 144 451.981 144ZM484.72 144C483.653 144 482.427 143.787 481.04 143.36C479.76 142.827 478.693 142.133 477.84 141.28C477.093 140.427 476.72 139.467 476.72 138.4C476.72 137.973 476.773 137.547 476.88 137.12L509.68 30.72C510.107 29.12 511.12 27.9467 512.72 27.2C514.32 26.4533 516.027 26.08 517.84 26.08C519.76 26.08 521.52 26.5067 523.12 27.36C524.72 28.1067 525.733 29.2267 526.16 30.72L558.8 137.12C559.013 137.547 559.12 137.92 559.12 138.24C559.12 139.307 558.64 140.267 557.68 141.12C556.827 141.973 555.76 142.667 554.48 143.2C553.2 143.733 551.973 144 550.8 144C549.627 144 548.613 143.787 547.76 143.36C546.907 142.827 546.32 142.027 546 140.96L538.8 117.12H496.72L489.84 140.96C489.52 142.027 488.88 142.827 487.92 143.36C487.067 143.787 486 144 484.72 144ZM499.92 106.08H535.76L517.84 45.92L499.92 106.08ZM571.096 144C569.603 144 568.216 143.627 566.936 142.88C565.656 142.027 565.016 140.8 565.016 139.2V31.68C565.016 30.08 565.71 28.9067 567.096 28.16C568.59 27.4133 570.136 27.04 571.736 27.04C573.443 27.04 574.99 27.4133 576.376 28.16C577.763 28.9067 578.456 30.08 578.456 31.68V131.84H622.296C623.79 131.84 624.856 132.48 625.496 133.76C626.243 134.933 626.616 136.32 626.616 137.92C626.616 139.413 626.243 140.8 625.496 142.08C624.856 143.36 623.79 144 622.296 144H571.096ZM689.171 144.96C682.665 144.96 676.798 143.84 671.571 141.6C666.451 139.253 662.345 135.52 659.251 130.4C656.265 125.28 654.771 118.507 654.771 110.08V61.92C654.771 53.4933 656.265 46.72 659.251 41.6C662.345 36.48 666.451 32.8 671.571 30.56C676.798 28.2133 682.558 27.04 688.851 27.04C695.891 27.04 701.971 28.2667 707.091 30.72C712.318 33.0667 716.371 36.3733 719.251 40.64C722.238 44.9067 723.731 49.92 723.731 55.68C723.731 58.24 723.145 60 721.971 60.96C720.798 61.8133 719.145 62.24 717.011 62.24C715.198 62.24 713.651 61.92 712.371 61.28C711.091 60.5333 710.398 59.3067 710.291 57.6C709.865 53.8667 708.905 50.6667 707.411 48C705.918 45.2267 703.678 43.0933 700.691 41.6C697.705 40 693.865 39.2 689.171 39.2C682.558 39.2 677.385 41.0667 673.651 44.8C670.025 48.4267 668.211 54.1333 668.211 61.92V110.08C668.211 117.867 670.025 123.627 673.651 127.36C677.385 130.987 682.558 132.8 689.171 132.8C695.785 132.8 700.958 130.987 704.691 127.36C708.425 123.627 710.291 117.867 710.291 110.08V93.76H691.251C689.758 93.76 688.585 93.1733 687.731 92C686.985 90.8267 686.611 89.5467 686.611 88.16C686.611 86.7733 686.985 85.4933 687.731 84.32C688.585 83.1467 689.758 82.56 691.251 82.56H719.091C720.585 82.56 721.705 83.04 722.451 84C723.305 84.96 723.731 86.1333 723.731 87.52V110.08C723.731 118.507 722.185 125.28 719.091 130.4C716.105 135.52 711.998 139.253 706.771 141.6C701.545 143.84 695.678 144.96 689.171 144.96ZM741.628 144C740.134 144 738.748 143.627 737.468 142.88C736.188 142.027 735.548 140.8 735.548 139.2V31.84C735.548 30.24 736.188 29.0667 737.468 28.32C738.748 27.4667 740.134 27.04 741.628 27.04H798.588C800.294 27.04 801.468 27.68 802.108 28.96C802.854 30.24 803.228 31.5733 803.228 32.96C803.228 34.56 802.801 36 801.948 37.28C801.201 38.56 800.081 39.2 798.588 39.2H748.988V79.84H773.948C775.441 79.84 776.561 80.4267 777.308 81.6C778.161 82.7733 778.588 84.1067 778.588 85.6C778.588 86.88 778.214 88.1067 777.468 89.28C776.828 90.4533 775.654 91.04 773.948 91.04H748.988V131.84H798.588C800.081 131.84 801.201 132.48 801.948 133.76C802.801 134.933 803.228 136.373 803.228 138.08C803.228 139.467 802.854 140.8 802.108 142.08C801.468 143.36 800.294 144 798.588 144H741.628ZM816.455 144C814.855 144 813.308 143.627 811.815 142.88C810.428 142.027 809.735 140.8 809.735 139.2V31.68C809.735 29.9733 810.428 28.8 811.815 28.16C813.308 27.4133 814.855 27.04 816.455 27.04C818.162 27.04 819.602 27.36 820.775 28C821.948 28.64 823.015 29.6 823.975 30.88C824.935 32.0533 825.895 33.6 826.855 35.52L866.535 113.44V31.68C866.535 30.08 867.228 28.9067 868.615 28.16C870.108 27.4133 871.655 27.04 873.255 27.04C874.962 27.04 876.508 27.4133 877.895 28.16C879.282 28.9067 879.975 30.08 879.975 31.68V139.2C879.975 140.8 879.282 142.027 877.895 142.88C876.508 143.627 874.962 144 873.255 144C871.548 144 869.948 143.413 868.455 142.24C867.068 141.067 865.895 139.627 864.935 137.92L823.175 57.44V139.2C823.175 140.8 822.482 142.027 821.095 142.88C819.708 143.627 818.162 144 816.455 144ZM901.58 144C899.98 144 898.433 143.627 896.94 142.88C895.553 142.027 894.86 140.8 894.86 139.2V31.68C894.86 30.08 895.553 28.9067 896.94 28.16C898.433 27.4133 899.98 27.04 901.58 27.04C903.287 27.04 904.833 27.4133 906.22 28.16C907.607 28.9067 908.3 30.08 908.3 31.68V139.2C908.3 140.8 907.607 142.027 906.22 142.88C904.833 143.627 903.287 144 901.58 144ZM957.51 144.96C950.897 144.96 944.977 143.84 939.75 141.6C934.523 139.253 930.363 135.573 927.27 130.56C924.177 125.44 922.63 118.613 922.63 110.08V31.68C922.63 30.08 923.27 28.9067 924.55 28.16C925.937 27.4133 927.537 27.04 929.35 27.04C931.057 27.04 932.603 27.4133 933.99 28.16C935.377 28.9067 936.07 30.08 936.07 31.68V110.08C936.07 117.867 937.937 123.627 941.67 127.36C945.403 130.987 950.683 132.8 957.51 132.8C964.23 132.8 969.457 130.987 973.19 127.36C977.03 123.627 978.95 117.867 978.95 110.08V31.68C978.95 30.08 979.643 28.9067 981.03 28.16C982.417 27.4133 983.963 27.04 985.67 27.04C987.377 27.04 988.923 27.4133 990.31 28.16C991.697 28.9067 992.39 30.08 992.39 31.68V110.08C992.39 118.613 990.843 125.44 987.75 130.56C984.657 135.573 980.443 139.253 975.11 141.6C969.883 143.84 964.017 144.96 957.51 144.96ZM1034.51 145.28C1027.69 145.28 1021.71 144.267 1016.59 142.24C1011.47 140.107 1007.53 137.653 1004.75 134.88C1001.98 132 1000.59 129.44 1000.59 127.2C1000.59 126.133 1000.86 125.067 1001.39 124C1002.03 122.827 1002.78 121.867 1003.63 121.12C1004.59 120.267 1005.55 119.84 1006.51 119.84C1007.79 119.84 1009.02 120.48 1010.19 121.76C1011.47 123.04 1013.02 124.587 1014.83 126.4C1016.75 128.107 1019.21 129.6 1022.19 130.88C1025.18 132.16 1029.07 132.8 1033.87 132.8C1038.35 132.8 1042.25 132.107 1045.55 130.72C1048.86 129.227 1051.42 127.04 1053.23 124.16C1055.15 121.173 1056.11 117.44 1056.11 112.96C1056.11 108.373 1055.15 104.64 1053.23 101.76C1051.31 98.88 1048.75 96.48 1045.55 94.56C1042.46 92.64 1039.05 90.9333 1035.31 89.44C1031.69 87.9467 1027.95 86.4533 1024.11 84.96C1020.38 83.36 1016.97 81.44 1013.87 79.2C1010.78 76.8533 1008.27 73.8667 1006.35 70.24C1004.43 66.6133 1003.47 62.0267 1003.47 56.48C1003.47 50.6133 1004.54 45.76 1006.67 41.92C1008.81 38.08 1011.63 35.04 1015.15 32.8C1018.67 30.56 1022.46 29.0133 1026.51 28.16C1030.67 27.2 1034.73 26.72 1038.67 26.72C1041.55 26.72 1044.59 26.9333 1047.79 27.36C1050.99 27.7867 1054.03 28.4267 1056.91 29.28C1059.79 30.1333 1062.14 31.2533 1063.95 32.64C1065.77 33.92 1066.67 35.4667 1066.67 37.28C1066.67 38.1333 1066.46 39.1467 1066.03 40.32C1065.61 41.3867 1064.97 42.4 1064.11 43.36C1063.26 44.2133 1062.19 44.64 1060.91 44.64C1059.74 44.64 1058.3 44.16 1056.59 43.2C1054.89 42.1333 1052.59 41.12 1049.71 40.16C1046.94 39.0933 1043.26 38.56 1038.67 38.56C1034.83 38.56 1031.21 39.0933 1027.79 40.16C1024.49 41.2267 1021.82 42.9867 1019.79 45.44C1017.87 47.8933 1016.91 51.1467 1016.91 55.2C1016.91 59.04 1017.87 62.1867 1019.79 64.64C1021.71 67.0933 1024.22 69.12 1027.31 70.72C1030.41 72.32 1033.82 73.8133 1037.55 75.2C1041.29 76.48 1045.02 78.0267 1048.75 79.84C1052.49 81.5467 1055.9 83.68 1058.99 86.24C1062.19 88.8 1064.75 92.16 1066.67 96.32C1068.59 100.373 1069.55 105.493 1069.55 111.68C1069.55 119.36 1068.01 125.707 1064.91 130.72C1061.93 135.627 1057.82 139.307 1052.59 141.76C1047.37 144.107 1041.34 145.28 1034.51 145.28ZM233.2 305.28C226.373 305.28 220.4 304.267 215.28 302.24C210.16 300.107 206.213 297.653 203.44 294.88C200.667 292 199.28 289.44 199.28 287.2C199.28 286.133 199.547 285.067 200.08 284C200.72 282.827 201.467 281.867 202.32 281.12C203.28 280.267 204.24 279.84 205.2 279.84C206.48 279.84 207.707 280.48 208.88 281.76C210.16 283.04 211.707 284.587 213.52 286.4C215.44 288.107 217.893 289.6 220.88 290.88C223.867 292.16 227.76 292.8 232.56 292.8C237.04 292.8 240.933 292.107 244.24 290.72C247.547 289.227 250.107 287.04 251.92 284.16C253.84 281.173 254.8 277.44 254.8 272.96C254.8 268.373 253.84 264.64 251.92 261.76C250 258.88 247.44 256.48 244.24 254.56C241.147 252.64 237.733 250.933 234 249.44C230.373 247.947 226.64 246.453 222.8 244.96C219.067 243.36 215.653 241.44 212.56 239.2C209.467 236.853 206.96 233.867 205.04 230.24C203.12 226.613 202.16 222.027 202.16 216.48C202.16 210.613 203.227 205.76 205.36 201.92C207.493 198.08 210.32 195.04 213.84 192.8C217.36 190.56 221.147 189.013 225.2 188.16C229.36 187.2 233.413 186.72 237.36 186.72C240.24 186.72 243.28 186.933 246.48 187.36C249.68 187.787 252.72 188.427 255.6 189.28C258.48 190.133 260.827 191.253 262.64 192.64C264.453 193.92 265.36 195.467 265.36 197.28C265.36 198.133 265.147 199.147 264.72 200.32C264.293 201.387 263.653 202.4 262.8 203.36C261.947 204.213 260.88 204.64 259.6 204.64C258.427 204.64 256.987 204.16 255.28 203.2C253.573 202.133 251.28 201.12 248.4 200.16C245.627 199.093 241.947 198.56 237.36 198.56C233.52 198.56 229.893 199.093 226.48 200.16C223.173 201.227 220.507 202.987 218.48 205.44C216.56 207.893 215.6 211.147 215.6 215.2C215.6 219.04 216.56 222.187 218.48 224.64C220.4 227.093 222.907 229.12 226 230.72C229.093 232.32 232.507 233.813 236.24 235.2C239.973 236.48 243.707 238.027 247.44 239.84C251.173 241.547 254.587 243.68 257.68 246.24C260.88 248.8 263.44 252.16 265.36 256.32C267.28 260.373 268.24 265.493 268.24 271.68C268.24 279.36 266.693 285.707 263.6 290.72C260.613 295.627 256.507 299.307 251.28 301.76C246.053 304.107 240.027 305.28 233.2 305.28ZM310.953 304.96C304.446 304.96 298.579 303.84 293.353 301.6C288.233 299.253 284.126 295.573 281.033 290.56C278.046 285.44 276.553 278.613 276.553 270.08V221.92C276.553 213.387 278.046 206.613 281.033 201.6C284.126 196.48 288.233 192.8 293.353 190.56C298.579 188.213 304.446 187.04 310.953 187.04C317.459 187.04 323.326 188.213 328.553 190.56C333.779 192.8 337.886 196.48 340.873 201.6C343.966 206.613 345.513 213.387 345.513 221.92V270.08C345.513 278.613 343.966 285.44 340.873 290.56C337.886 295.573 333.779 299.253 328.553 301.6C323.326 303.84 317.459 304.96 310.953 304.96ZM310.953 292.8C317.566 292.8 322.739 290.987 326.473 287.36C330.206 283.627 332.073 277.867 332.073 270.08V221.92C332.073 214.133 330.206 208.427 326.473 204.8C322.739 201.067 317.566 199.2 310.953 199.2C304.339 199.2 299.166 201.067 295.433 204.8C291.806 208.427 289.993 214.133 289.993 221.92V270.08C289.993 277.867 291.806 283.627 295.433 287.36C299.166 290.987 304.339 292.8 310.953 292.8ZM365.128 304C363.634 304 362.248 303.627 360.968 302.88C359.688 302.027 359.048 300.8 359.048 299.2V191.68C359.048 190.08 359.741 188.907 361.128 188.16C362.621 187.413 364.168 187.04 365.768 187.04C367.474 187.04 369.021 187.413 370.408 188.16C371.794 188.907 372.488 190.08 372.488 191.68V291.84H416.328C417.821 291.84 418.888 292.48 419.528 293.76C420.274 294.933 420.648 296.32 420.648 297.92C420.648 299.413 420.274 300.8 419.528 302.08C418.888 303.36 417.821 304 416.328 304H365.128ZM457.01 304.96C450.397 304.96 444.477 303.84 439.25 301.6C434.023 299.253 429.863 295.573 426.77 290.56C423.677 285.44 422.13 278.613 422.13 270.08V191.68C422.13 190.08 422.77 188.907 424.05 188.16C425.437 187.413 427.037 187.04 428.85 187.04C430.557 187.04 432.103 187.413 433.49 188.16C434.877 188.907 435.57 190.08 435.57 191.68V270.08C435.57 277.867 437.437 283.627 441.17 287.36C444.903 290.987 450.183 292.8 457.01 292.8C463.73 292.8 468.957 290.987 472.69 287.36C476.53 283.627 478.45 277.867 478.45 270.08V191.68C478.45 190.08 479.143 188.907 480.53 188.16C481.917 187.413 483.463 187.04 485.17 187.04C486.877 187.04 488.423 187.413 489.81 188.16C491.197 188.907 491.89 190.08 491.89 191.68V270.08C491.89 278.613 490.343 285.44 487.25 290.56C484.157 295.573 479.943 299.253 474.61 301.6C469.383 303.84 463.517 304.96 457.01 304.96ZM534.013 304C532.306 304 530.759 303.627 529.373 302.88C527.986 302.027 527.293 300.8 527.293 299.2V199.52H501.373C499.986 199.52 498.866 198.88 498.013 197.6C497.159 196.32 496.733 194.827 496.733 193.12C496.733 191.627 497.106 190.24 497.853 188.96C498.599 187.68 499.773 187.04 501.373 187.04H566.653C568.253 187.04 569.426 187.68 570.173 188.96C570.919 190.24 571.293 191.627 571.293 193.12C571.293 194.72 570.919 196.213 570.173 197.6C569.426 198.88 568.253 199.52 566.653 199.52H540.733V299.2C540.733 300.8 540.039 302.027 538.653 302.88C537.266 303.627 535.719 304 534.013 304ZM583.33 304C581.73 304 580.183 303.627 578.69 302.88C577.303 302.027 576.61 300.8 576.61 299.2V191.68C576.61 190.08 577.303 188.907 578.69 188.16C580.183 187.413 581.73 187.04 583.33 187.04C585.037 187.04 586.583 187.413 587.97 188.16C589.357 188.907 590.05 190.08 590.05 191.68V299.2C590.05 300.8 589.357 302.027 587.97 302.88C586.583 303.627 585.037 304 583.33 304ZM638.14 304.96C631.633 304.96 625.767 303.84 620.54 301.6C615.42 299.253 611.313 295.573 608.22 290.56C605.233 285.44 603.74 278.613 603.74 270.08V221.92C603.74 213.387 605.233 206.613 608.22 201.6C611.313 196.48 615.42 192.8 620.54 190.56C625.767 188.213 631.633 187.04 638.14 187.04C644.647 187.04 650.513 188.213 655.74 190.56C660.967 192.8 665.073 196.48 668.06 201.6C671.153 206.613 672.7 213.387 672.7 221.92V270.08C672.7 278.613 671.153 285.44 668.06 290.56C665.073 295.573 660.967 299.253 655.74 301.6C650.513 303.84 644.647 304.96 638.14 304.96ZM638.14 292.8C644.753 292.8 649.927 290.987 653.66 287.36C657.393 283.627 659.26 277.867 659.26 270.08V221.92C659.26 214.133 657.393 208.427 653.66 204.8C649.927 201.067 644.753 199.2 638.14 199.2C631.527 199.2 626.353 201.067 622.62 204.8C618.993 208.427 617.18 214.133 617.18 221.92V270.08C617.18 277.867 618.993 283.627 622.62 287.36C626.353 290.987 631.527 292.8 638.14 292.8ZM692.955 304C691.355 304 689.808 303.627 688.315 302.88C686.928 302.027 686.235 300.8 686.235 299.2V191.68C686.235 189.973 686.928 188.8 688.315 188.16C689.808 187.413 691.355 187.04 692.955 187.04C694.662 187.04 696.102 187.36 697.275 188C698.448 188.64 699.515 189.6 700.475 190.88C701.435 192.053 702.395 193.6 703.355 195.52L743.035 273.44V191.68C743.035 190.08 743.728 188.907 745.115 188.16C746.608 187.413 748.155 187.04 749.755 187.04C751.462 187.04 753.008 187.413 754.395 188.16C755.782 188.907 756.475 190.08 756.475 191.68V299.2C756.475 300.8 755.782 302.027 754.395 302.88C753.008 303.627 751.462 304 749.755 304C748.048 304 746.448 303.413 744.955 302.24C743.568 301.067 742.395 299.627 741.435 297.92L699.675 217.44V299.2C699.675 300.8 698.982 302.027 697.595 302.88C696.208 303.627 694.662 304 692.955 304ZM799.2 305.28C792.373 305.28 786.4 304.267 781.28 302.24C776.16 300.107 772.213 297.653 769.44 294.88C766.667 292 765.28 289.44 765.28 287.2C765.28 286.133 765.547 285.067 766.08 284C766.72 282.827 767.467 281.867 768.32 281.12C769.28 280.267 770.24 279.84 771.2 279.84C772.48 279.84 773.707 280.48 774.88 281.76C776.16 283.04 777.707 284.587 779.52 286.4C781.44 288.107 783.893 289.6 786.88 290.88C789.867 292.16 793.76 292.8 798.56 292.8C803.04 292.8 806.933 292.107 810.24 290.72C813.547 289.227 816.107 287.04 817.92 284.16C819.84 281.173 820.8 277.44 820.8 272.96C820.8 268.373 819.84 264.64 817.92 261.76C816 258.88 813.44 256.48 810.24 254.56C807.147 252.64 803.733 250.933 800 249.44C796.373 247.947 792.64 246.453 788.8 244.96C785.067 243.36 781.653 241.44 778.56 239.2C775.467 236.853 772.96 233.867 771.04 230.24C769.12 226.613 768.16 222.027 768.16 216.48C768.16 210.613 769.227 205.76 771.36 201.92C773.493 198.08 776.32 195.04 779.84 192.8C783.36 190.56 787.147 189.013 791.2 188.16C795.36 187.2 799.413 186.72 803.36 186.72C806.24 186.72 809.28 186.933 812.48 187.36C815.68 187.787 818.72 188.427 821.6 189.28C824.48 190.133 826.827 191.253 828.64 192.64C830.453 193.92 831.36 195.467 831.36 197.28C831.36 198.133 831.147 199.147 830.72 200.32C830.293 201.387 829.653 202.4 828.8 203.36C827.947 204.213 826.88 204.64 825.6 204.64C824.427 204.64 822.987 204.16 821.28 203.2C819.573 202.133 817.28 201.12 814.4 200.16C811.627 199.093 807.947 198.56 803.36 198.56C799.52 198.56 795.893 199.093 792.48 200.16C789.173 201.227 786.507 202.987 784.48 205.44C782.56 207.893 781.6 211.147 781.6 215.2C781.6 219.04 782.56 222.187 784.48 224.64C786.4 227.093 788.907 229.12 792 230.72C795.093 232.32 798.507 233.813 802.24 235.2C805.973 236.48 809.707 238.027 813.44 239.84C817.173 241.547 820.587 243.68 823.68 246.24C826.88 248.8 829.44 252.16 831.36 256.32C833.28 260.373 834.24 265.493 834.24 271.68C834.24 279.36 832.693 285.707 829.6 290.72C826.613 295.627 822.507 299.307 817.28 301.76C812.053 304.107 806.027 305.28 799.2 305.28Z" fill="white"/>
</svg>
