<svg width="1131" height="334" viewBox="0 0 1131 334" fill="none" xmlns="http://www.w3.org/2000/svg">
<path d="M147.996 3.17495L12.4964 71.6749C0.20703 76.675 -3.79296 90.175 3.99636 99.675L81.9964 202.175C81.9964 202.175 92.4964 218.771 92.4964 202.175V184.175C92.4964 184.175 92.4964 175.771 78.4964 161.175L31.4964 99.675C31.4964 99.675 28.4963 87.271 38.4964 82.175L117.996 39.175C117.996 39.175 135.496 28.271 128.496 45.675L105.996 90.175C105.996 90.175 101.707 99.675 109.496 99.675L119.707 97.771C119.707 97.771 128.496 94.175 135.496 76.675L163.496 16.675C163.496 16.675 173.707 -8.72901 147.996 3.17495Z" fill="#20447B"/>
<path d="M163.496 195.675L78.4964 104.175C70.707 94.271 65.207 94.771 62.4963 99.675V109.175C62.4963 109.175 62.4963 118.271 73.4964 130.175L131.996 195.675C131.996 195.675 147.996 210.771 128.496 226.675L62.4963 291.675C62.4963 291.675 53.207 299.271 49.4963 285.175L45.4963 231.675C45.4963 231.675 45.4963 212.271 55.9963 226.675L62.4963 243.675C62.4963 243.675 69.207 257.771 73.4964 239.175V226.675C73.4964 226.675 73.4964 218.771 62.4963 205.675L45.4963 180.175C45.4963 180.175 34.207 171.271 28.4963 184.175L31.4964 321.675C31.4964 321.675 31.4964 342.771 49.4963 329.175L163.496 226.675C163.496 226.675 174.207 213.271 163.496 195.675Z" fill="#20447B"/>
<path d="M211.44 143.479C209.627 143.479 208.133 143.053 206.96 142.199C205.893 141.239 205.36 140.119 205.36 138.839V31.1592C205.36 29.8792 205.893 28.8126 206.96 27.9592C208.133 26.9992 209.627 26.5192 211.44 26.5192H239.76C246.267 26.5192 252.133 27.6926 257.36 30.0392C262.587 32.2792 266.693 35.9592 269.68 41.0792C272.773 46.0926 274.32 52.8659 274.32 61.3992V108.599C274.32 117.133 272.773 123.959 269.68 129.079C266.693 134.093 262.587 137.773 257.36 140.119C252.133 142.359 246.267 143.479 239.76 143.479H211.44ZM218.8 131.319H239.76C246.373 131.319 251.547 129.506 255.28 125.879C259.013 122.146 260.88 116.386 260.88 108.599V61.3992C260.88 53.6126 259.013 47.9059 255.28 44.2792C251.547 40.5459 246.373 38.6792 239.76 38.6792H218.8V131.319ZM294.705 143.479C293.105 143.479 291.558 143.106 290.065 142.359C288.678 141.506 287.985 140.279 287.985 138.679V31.1592C287.985 29.5592 288.678 28.3859 290.065 27.6392C291.558 26.8926 293.105 26.5192 294.705 26.5192C296.412 26.5192 297.958 26.8926 299.345 27.6392C300.732 28.3859 301.425 29.5592 301.425 31.1592V138.679C301.425 140.279 300.732 141.506 299.345 142.359C297.958 143.106 296.412 143.479 294.705 143.479ZM349.515 144.439C343.008 144.439 337.142 143.319 331.915 141.079C326.795 138.733 322.688 134.999 319.595 129.879C316.608 124.759 315.115 117.986 315.115 109.559V61.3992C315.115 52.9726 316.608 46.1992 319.595 41.0792C322.688 35.9592 326.795 32.2792 331.915 30.0392C337.142 27.6926 342.902 26.5192 349.195 26.5192C356.235 26.5192 362.315 27.7459 367.435 30.1992C372.662 32.5459 376.715 35.8526 379.595 40.1192C382.582 44.3859 384.075 49.3992 384.075 55.1592C384.075 57.7192 383.488 59.4792 382.315 60.4392C381.142 61.2926 379.488 61.7192 377.355 61.7192C375.542 61.7192 373.995 61.3992 372.715 60.7592C371.435 60.0126 370.742 58.7859 370.635 57.0792C370.208 53.3459 369.248 50.1459 367.755 47.4792C366.262 44.7059 364.022 42.5726 361.035 41.0792C358.048 39.4792 354.208 38.6792 349.515 38.6792C342.902 38.6792 337.728 40.5459 333.995 44.2792C330.368 47.9059 328.555 53.6126 328.555 61.3992V109.559C328.555 117.346 330.368 123.106 333.995 126.839C337.728 130.466 342.902 132.279 349.515 132.279C356.128 132.279 361.302 130.466 365.035 126.839C368.768 123.106 370.635 117.346 370.635 109.559V93.2392H351.595C350.102 93.2392 348.928 92.6526 348.075 91.4792C347.328 90.3059 346.955 89.0259 346.955 87.6392C346.955 86.2526 347.328 84.9726 348.075 83.7992C348.928 82.6259 350.102 82.0392 351.595 82.0392H379.435C380.928 82.0392 382.048 82.5192 382.795 83.4792C383.648 84.4392 384.075 85.6126 384.075 86.9992V109.559C384.075 117.986 382.528 124.759 379.435 129.879C376.448 134.999 372.342 138.733 367.115 141.079C361.888 143.319 356.022 144.439 349.515 144.439ZM402.611 143.479C401.011 143.479 399.465 143.106 397.971 142.359C396.585 141.506 395.891 140.279 395.891 138.679V31.1592C395.891 29.5592 396.585 28.3859 397.971 27.6392C399.465 26.8926 401.011 26.5192 402.611 26.5192C404.318 26.5192 405.865 26.8926 407.251 27.6392C408.638 28.3859 409.331 29.5592 409.331 31.1592V138.679C409.331 140.279 408.638 141.506 407.251 142.359C405.865 143.106 404.318 143.479 402.611 143.479ZM451.981 143.479C450.275 143.479 448.728 143.106 447.341 142.359C445.955 141.506 445.261 140.279 445.261 138.679V38.9992H419.341C417.955 38.9992 416.835 38.3592 415.981 37.0792C415.128 35.7992 414.701 34.3059 414.701 32.5992C414.701 31.1059 415.075 29.7192 415.821 28.4392C416.568 27.1592 417.741 26.5192 419.341 26.5192H484.621C486.221 26.5192 487.395 27.1592 488.141 28.4392C488.888 29.7192 489.261 31.1059 489.261 32.5992C489.261 34.1992 488.888 35.6926 488.141 37.0792C487.395 38.3592 486.221 38.9992 484.621 38.9992H458.701V138.679C458.701 140.279 458.008 141.506 456.621 142.359C455.235 143.106 453.688 143.479 451.981 143.479ZM484.72 143.479C483.653 143.479 482.427 143.266 481.04 142.839C479.76 142.306 478.693 141.613 477.84 140.759C477.093 139.906 476.72 138.946 476.72 137.879C476.72 137.453 476.773 137.026 476.88 136.599L509.68 30.1992C510.107 28.5992 511.12 27.4259 512.72 26.6792C514.32 25.9326 516.027 25.5592 517.84 25.5592C519.76 25.5592 521.52 25.9859 523.12 26.8392C524.72 27.5859 525.733 28.7059 526.16 30.1992L558.8 136.599C559.013 137.026 559.12 137.399 559.12 137.719C559.12 138.786 558.64 139.746 557.68 140.599C556.827 141.453 555.76 142.146 554.48 142.679C553.2 143.213 551.973 143.479 550.8 143.479C549.627 143.479 548.613 143.266 547.76 142.839C546.907 142.306 546.32 141.506 546 140.439L538.8 116.599H496.72L489.84 140.439C489.52 141.506 488.88 142.306 487.92 142.839C487.067 143.266 486 143.479 484.72 143.479ZM499.92 105.559H535.76L517.84 45.3992L499.92 105.559ZM571.096 143.479C569.603 143.479 568.216 143.106 566.936 142.359C565.656 141.506 565.016 140.279 565.016 138.679V31.1592C565.016 29.5592 565.71 28.3859 567.096 27.6392C568.59 26.8926 570.136 26.5192 571.736 26.5192C573.443 26.5192 574.99 26.8926 576.376 27.6392C577.763 28.3859 578.456 29.5592 578.456 31.1592V131.319H622.296C623.79 131.319 624.856 131.959 625.496 133.239C626.243 134.413 626.616 135.799 626.616 137.399C626.616 138.893 626.243 140.279 625.496 141.559C624.856 142.839 623.79 143.479 622.296 143.479H571.096ZM689.171 144.439C682.665 144.439 676.798 143.319 671.571 141.079C666.451 138.733 662.345 134.999 659.251 129.879C656.265 124.759 654.771 117.986 654.771 109.559V61.3992C654.771 52.9726 656.265 46.1992 659.251 41.0792C662.345 35.9592 666.451 32.2792 671.571 30.0392C676.798 27.6926 682.558 26.5192 688.851 26.5192C695.891 26.5192 701.971 27.7459 707.091 30.1992C712.318 32.5459 716.371 35.8526 719.251 40.1192C722.238 44.3859 723.731 49.3992 723.731 55.1592C723.731 57.7192 723.145 59.4792 721.971 60.4392C720.798 61.2926 719.145 61.7192 717.011 61.7192C715.198 61.7192 713.651 61.3992 712.371 60.7592C711.091 60.0126 710.398 58.7859 710.291 57.0792C709.865 53.3459 708.905 50.1459 707.411 47.4792C705.918 44.7059 703.678 42.5726 700.691 41.0792C697.705 39.4792 693.865 38.6792 689.171 38.6792C682.558 38.6792 677.385 40.5459 673.651 44.2792C670.025 47.9059 668.211 53.6126 668.211 61.3992V109.559C668.211 117.346 670.025 123.106 673.651 126.839C677.385 130.466 682.558 132.279 689.171 132.279C695.785 132.279 700.958 130.466 704.691 126.839C708.425 123.106 710.291 117.346 710.291 109.559V93.2392H691.251C689.758 93.2392 688.585 92.6526 687.731 91.4792C686.985 90.3059 686.611 89.0259 686.611 87.6392C686.611 86.2526 686.985 84.9726 687.731 83.7992C688.585 82.6259 689.758 82.0392 691.251 82.0392H719.091C720.585 82.0392 721.705 82.5192 722.451 83.4792C723.305 84.4392 723.731 85.6126 723.731 86.9992V109.559C723.731 117.986 722.185 124.759 719.091 129.879C716.105 134.999 711.998 138.733 706.771 141.079C701.545 143.319 695.678 144.439 689.171 144.439ZM741.628 143.479C740.134 143.479 738.748 143.106 737.468 142.359C736.188 141.506 735.548 140.279 735.548 138.679V31.3192C735.548 29.7192 736.188 28.5459 737.468 27.7992C738.748 26.9459 740.134 26.5192 741.628 26.5192H798.588C800.294 26.5192 801.468 27.1592 802.108 28.4392C802.854 29.7192 803.228 31.0526 803.228 32.4392C803.228 34.0392 802.801 35.4792 801.948 36.7592C801.201 38.0392 800.081 38.6792 798.588 38.6792H748.988V79.3192H773.948C775.441 79.3192 776.561 79.9059 777.308 81.0792C778.161 82.2526 778.588 83.5859 778.588 85.0792C778.588 86.3592 778.214 87.5859 777.468 88.7592C776.828 89.9326 775.654 90.5192 773.948 90.5192H748.988V131.319H798.588C800.081 131.319 801.201 131.959 801.948 133.239C802.801 134.413 803.228 135.853 803.228 137.559C803.228 138.946 802.854 140.279 802.108 141.559C801.468 142.839 800.294 143.479 798.588 143.479H741.628ZM816.455 143.479C814.855 143.479 813.308 143.106 811.815 142.359C810.428 141.506 809.735 140.279 809.735 138.679V31.1592C809.735 29.4526 810.428 28.2792 811.815 27.6392C813.308 26.8926 814.855 26.5192 816.455 26.5192C818.162 26.5192 819.602 26.8392 820.775 27.4792C821.948 28.1192 823.015 29.0792 823.975 30.3592C824.935 31.5326 825.895 33.0792 826.855 34.9992L866.535 112.919V31.1592C866.535 29.5592 867.228 28.3859 868.615 27.6392C870.108 26.8926 871.655 26.5192 873.255 26.5192C874.962 26.5192 876.508 26.8926 877.895 27.6392C879.282 28.3859 879.975 29.5592 879.975 31.1592V138.679C879.975 140.279 879.282 141.506 877.895 142.359C876.508 143.106 874.962 143.479 873.255 143.479C871.548 143.479 869.948 142.893 868.455 141.719C867.068 140.546 865.895 139.106 864.935 137.399L823.175 56.9192V138.679C823.175 140.279 822.482 141.506 821.095 142.359C819.708 143.106 818.162 143.479 816.455 143.479ZM901.58 143.479C899.98 143.479 898.433 143.106 896.94 142.359C895.553 141.506 894.86 140.279 894.86 138.679V31.1592C894.86 29.5592 895.553 28.3859 896.94 27.6392C898.433 26.8926 899.98 26.5192 901.58 26.5192C903.287 26.5192 904.833 26.8926 906.22 27.6392C907.607 28.3859 908.3 29.5592 908.3 31.1592V138.679C908.3 140.279 907.607 141.506 906.22 142.359C904.833 143.106 903.287 143.479 901.58 143.479ZM957.51 144.439C950.897 144.439 944.977 143.319 939.75 141.079C934.523 138.733 930.363 135.053 927.27 130.039C924.177 124.919 922.63 118.093 922.63 109.559V31.1592C922.63 29.5592 923.27 28.3859 924.55 27.6392C925.937 26.8926 927.537 26.5192 929.35 26.5192C931.057 26.5192 932.603 26.8926 933.99 27.6392C935.377 28.3859 936.07 29.5592 936.07 31.1592V109.559C936.07 117.346 937.937 123.106 941.67 126.839C945.403 130.466 950.683 132.279 957.51 132.279C964.23 132.279 969.457 130.466 973.19 126.839C977.03 123.106 978.95 117.346 978.95 109.559V31.1592C978.95 29.5592 979.643 28.3859 981.03 27.6392C982.417 26.8926 983.963 26.5192 985.67 26.5192C987.377 26.5192 988.923 26.8926 990.31 27.6392C991.697 28.3859 992.39 29.5592 992.39 31.1592V109.559C992.39 118.093 990.843 124.919 987.75 130.039C984.657 135.053 980.443 138.733 975.11 141.079C969.883 143.319 964.017 144.439 957.51 144.439ZM1034.51 144.759C1027.69 144.759 1021.71 143.746 1016.59 141.719C1011.47 139.586 1007.53 137.133 1004.75 134.359C1001.98 131.479 1000.59 128.919 1000.59 126.679C1000.59 125.613 1000.86 124.546 1001.39 123.479C1002.03 122.306 1002.78 121.346 1003.63 120.599C1004.59 119.746 1005.55 119.319 1006.51 119.319C1007.79 119.319 1009.02 119.959 1010.19 121.239C1011.47 122.519 1013.02 124.066 1014.83 125.879C1016.75 127.586 1019.21 129.079 1022.19 130.359C1025.18 131.639 1029.07 132.279 1033.87 132.279C1038.35 132.279 1042.25 131.586 1045.55 130.199C1048.86 128.706 1051.42 126.519 1053.23 123.639C1055.15 120.653 1056.11 116.919 1056.11 112.439C1056.11 107.853 1055.15 104.119 1053.23 101.239C1051.31 98.3592 1048.75 95.9592 1045.55 94.0392C1042.46 92.1192 1039.05 90.4126 1035.31 88.9192C1031.69 87.4259 1027.95 85.9326 1024.11 84.4392C1020.38 82.8392 1016.97 80.9192 1013.87 78.6792C1010.78 76.3326 1008.27 73.3459 1006.35 69.7192C1004.43 66.0926 1003.47 61.5059 1003.47 55.9592C1003.47 50.0926 1004.54 45.2392 1006.67 41.3992C1008.81 37.5592 1011.63 34.5192 1015.15 32.2792C1018.67 30.0392 1022.46 28.4926 1026.51 27.6392C1030.67 26.6792 1034.73 26.1992 1038.67 26.1992C1041.55 26.1992 1044.59 26.4126 1047.79 26.8392C1050.99 27.2659 1054.03 27.9059 1056.91 28.7592C1059.79 29.6126 1062.14 30.7326 1063.95 32.1192C1065.77 33.3992 1066.67 34.9459 1066.67 36.7592C1066.67 37.6126 1066.46 38.6259 1066.03 39.7992C1065.61 40.8659 1064.97 41.8792 1064.11 42.8392C1063.26 43.6926 1062.19 44.1192 1060.91 44.1192C1059.74 44.1192 1058.3 43.6392 1056.59 42.6792C1054.89 41.6126 1052.59 40.5992 1049.71 39.6392C1046.94 38.5726 1043.26 38.0392 1038.67 38.0392C1034.83 38.0392 1031.21 38.5726 1027.79 39.6392C1024.49 40.7059 1021.82 42.4659 1019.79 44.9192C1017.87 47.3726 1016.91 50.6259 1016.91 54.6792C1016.91 58.5192 1017.87 61.6659 1019.79 64.1192C1021.71 66.5726 1024.22 68.5992 1027.31 70.1992C1030.41 71.7992 1033.82 73.2926 1037.55 74.6792C1041.29 75.9592 1045.02 77.5059 1048.75 79.3192C1052.49 81.0259 1055.9 83.1592 1058.99 85.7192C1062.19 88.2792 1064.75 91.6392 1066.67 95.7992C1068.59 99.8526 1069.55 104.973 1069.55 111.159C1069.55 118.839 1068.01 125.186 1064.91 130.199C1061.93 135.106 1057.82 138.786 1052.59 141.239C1047.37 143.586 1041.34 144.759 1034.51 144.759ZM233.2 304.759C226.373 304.759 220.4 303.746 215.28 301.719C210.16 299.586 206.213 297.133 203.44 294.359C200.667 291.479 199.28 288.919 199.28 286.679C199.28 285.613 199.547 284.546 200.08 283.479C200.72 282.306 201.467 281.346 202.32 280.599C203.28 279.746 204.24 279.319 205.2 279.319C206.48 279.319 207.707 279.959 208.88 281.239C210.16 282.519 211.707 284.066 213.52 285.879C215.44 287.586 217.893 289.079 220.88 290.359C223.867 291.639 227.76 292.279 232.56 292.279C237.04 292.279 240.933 291.586 244.24 290.199C247.547 288.706 250.107 286.519 251.92 283.639C253.84 280.653 254.8 276.919 254.8 272.439C254.8 267.853 253.84 264.119 251.92 261.239C250 258.359 247.44 255.959 244.24 254.039C241.147 252.119 237.733 250.413 234 248.919C230.373 247.426 226.64 245.933 222.8 244.439C219.067 242.839 215.653 240.919 212.56 238.679C209.467 236.333 206.96 233.346 205.04 229.719C203.12 226.093 202.16 221.506 202.16 215.959C202.16 210.093 203.227 205.239 205.36 201.399C207.493 197.559 210.32 194.519 213.84 192.279C217.36 190.039 221.147 188.493 225.2 187.639C229.36 186.679 233.413 186.199 237.36 186.199C240.24 186.199 243.28 186.413 246.48 186.839C249.68 187.266 252.72 187.906 255.6 188.759C258.48 189.613 260.827 190.733 262.64 192.119C264.453 193.399 265.36 194.946 265.36 196.759C265.36 197.613 265.147 198.626 264.72 199.799C264.293 200.866 263.653 201.879 262.8 202.839C261.947 203.693 260.88 204.119 259.6 204.119C258.427 204.119 256.987 203.639 255.28 202.679C253.573 201.613 251.28 200.599 248.4 199.639C245.627 198.573 241.947 198.039 237.36 198.039C233.52 198.039 229.893 198.573 226.48 199.639C223.173 200.706 220.507 202.466 218.48 204.919C216.56 207.373 215.6 210.626 215.6 214.679C215.6 218.519 216.56 221.666 218.48 224.119C220.4 226.573 222.907 228.599 226 230.199C229.093 231.799 232.507 233.293 236.24 234.679C239.973 235.959 243.707 237.506 247.44 239.319C251.173 241.026 254.587 243.159 257.68 245.719C260.88 248.279 263.44 251.639 265.36 255.799C267.28 259.853 268.24 264.973 268.24 271.159C268.24 278.839 266.693 285.186 263.6 290.199C260.613 295.106 256.507 298.786 251.28 301.239C246.053 303.586 240.027 304.759 233.2 304.759ZM310.953 304.439C304.446 304.439 298.579 303.319 293.353 301.079C288.233 298.733 284.126 295.053 281.033 290.039C278.046 284.919 276.553 278.093 276.553 269.559V221.399C276.553 212.866 278.046 206.093 281.033 201.079C284.126 195.959 288.233 192.279 293.353 190.039C298.579 187.693 304.446 186.519 310.953 186.519C317.459 186.519 323.326 187.693 328.553 190.039C333.779 192.279 337.886 195.959 340.873 201.079C343.966 206.093 345.513 212.866 345.513 221.399V269.559C345.513 278.093 343.966 284.919 340.873 290.039C337.886 295.053 333.779 298.733 328.553 301.079C323.326 303.319 317.459 304.439 310.953 304.439ZM310.953 292.279C317.566 292.279 322.739 290.466 326.473 286.839C330.206 283.106 332.073 277.346 332.073 269.559V221.399C332.073 213.613 330.206 207.906 326.473 204.279C322.739 200.546 317.566 198.679 310.953 198.679C304.339 198.679 299.166 200.546 295.433 204.279C291.806 207.906 289.993 213.613 289.993 221.399V269.559C289.993 277.346 291.806 283.106 295.433 286.839C299.166 290.466 304.339 292.279 310.953 292.279ZM365.128 303.479C363.634 303.479 362.248 303.106 360.968 302.359C359.688 301.506 359.048 300.279 359.048 298.679V191.159C359.048 189.559 359.741 188.386 361.128 187.639C362.621 186.893 364.168 186.519 365.768 186.519C367.474 186.519 369.021 186.893 370.408 187.639C371.794 188.386 372.488 189.559 372.488 191.159V291.319H416.328C417.821 291.319 418.888 291.959 419.528 293.239C420.274 294.413 420.648 295.799 420.648 297.399C420.648 298.893 420.274 300.279 419.528 301.559C418.888 302.839 417.821 303.479 416.328 303.479H365.128ZM457.01 304.439C450.397 304.439 444.477 303.319 439.25 301.079C434.023 298.733 429.863 295.053 426.77 290.039C423.677 284.919 422.13 278.093 422.13 269.559V191.159C422.13 189.559 422.77 188.386 424.05 187.639C425.437 186.893 427.037 186.519 428.85 186.519C430.557 186.519 432.103 186.893 433.49 187.639C434.877 188.386 435.57 189.559 435.57 191.159V269.559C435.57 277.346 437.437 283.106 441.17 286.839C444.903 290.466 450.183 292.279 457.01 292.279C463.73 292.279 468.957 290.466 472.69 286.839C476.53 283.106 478.45 277.346 478.45 269.559V191.159C478.45 189.559 479.143 188.386 480.53 187.639C481.917 186.893 483.463 186.519 485.17 186.519C486.877 186.519 488.423 186.893 489.81 187.639C491.197 188.386 491.89 189.559 491.89 191.159V269.559C491.89 278.093 490.343 284.919 487.25 290.039C484.157 295.053 479.943 298.733 474.61 301.079C469.383 303.319 463.517 304.439 457.01 304.439ZM534.013 303.479C532.306 303.479 530.759 303.106 529.373 302.359C527.986 301.506 527.293 300.279 527.293 298.679V198.999H501.373C499.986 198.999 498.866 198.359 498.013 197.079C497.159 195.799 496.733 194.306 496.733 192.599C496.733 191.106 497.106 189.719 497.853 188.439C498.599 187.159 499.773 186.519 501.373 186.519H566.653C568.253 186.519 569.426 187.159 570.173 188.439C570.919 189.719 571.293 191.106 571.293 192.599C571.293 194.199 570.919 195.693 570.173 197.079C569.426 198.359 568.253 198.999 566.653 198.999H540.733V298.679C540.733 300.279 540.039 301.506 538.653 302.359C537.266 303.106 535.719 303.479 534.013 303.479ZM583.33 303.479C581.73 303.479 580.183 303.106 578.69 302.359C577.303 301.506 576.61 300.279 576.61 298.679V191.159C576.61 189.559 577.303 188.386 578.69 187.639C580.183 186.893 581.73 186.519 583.33 186.519C585.037 186.519 586.583 186.893 587.97 187.639C589.357 188.386 590.05 189.559 590.05 191.159V298.679C590.05 300.279 589.357 301.506 587.97 302.359C586.583 303.106 585.037 303.479 583.33 303.479ZM638.14 304.439C631.633 304.439 625.767 303.319 620.54 301.079C615.42 298.733 611.313 295.053 608.22 290.039C605.233 284.919 603.74 278.093 603.74 269.559V221.399C603.74 212.866 605.233 206.093 608.22 201.079C611.313 195.959 615.42 192.279 620.54 190.039C625.767 187.693 631.633 186.519 638.14 186.519C644.647 186.519 650.513 187.693 655.74 190.039C660.967 192.279 665.073 195.959 668.06 201.079C671.153 206.093 672.7 212.866 672.7 221.399V269.559C672.7 278.093 671.153 284.919 668.06 290.039C665.073 295.053 660.967 298.733 655.74 301.079C650.513 303.319 644.647 304.439 638.14 304.439ZM638.14 292.279C644.753 292.279 649.927 290.466 653.66 286.839C657.393 283.106 659.26 277.346 659.26 269.559V221.399C659.26 213.613 657.393 207.906 653.66 204.279C649.927 200.546 644.753 198.679 638.14 198.679C631.527 198.679 626.353 200.546 622.62 204.279C618.993 207.906 617.18 213.613 617.18 221.399V269.559C617.18 277.346 618.993 283.106 622.62 286.839C626.353 290.466 631.527 292.279 638.14 292.279ZM692.955 303.479C691.355 303.479 689.808 303.106 688.315 302.359C686.928 301.506 686.235 300.279 686.235 298.679V191.159C686.235 189.453 686.928 188.279 688.315 187.639C689.808 186.893 691.355 186.519 692.955 186.519C694.662 186.519 696.102 186.839 697.275 187.479C698.448 188.119 699.515 189.079 700.475 190.359C701.435 191.533 702.395 193.079 703.355 194.999L743.035 272.919V191.159C743.035 189.559 743.728 188.386 745.115 187.639C746.608 186.893 748.155 186.519 749.755 186.519C751.462 186.519 753.008 186.893 754.395 187.639C755.782 188.386 756.475 189.559 756.475 191.159V298.679C756.475 300.279 755.782 301.506 754.395 302.359C753.008 303.106 751.462 303.479 749.755 303.479C748.048 303.479 746.448 302.893 744.955 301.719C743.568 300.546 742.395 299.106 741.435 297.399L699.675 216.919V298.679C699.675 300.279 698.982 301.506 697.595 302.359C696.208 303.106 694.662 303.479 692.955 303.479ZM799.2 304.759C792.373 304.759 786.4 303.746 781.28 301.719C776.16 299.586 772.213 297.133 769.44 294.359C766.667 291.479 765.28 288.919 765.28 286.679C765.28 285.613 765.547 284.546 766.08 283.479C766.72 282.306 767.467 281.346 768.32 280.599C769.28 279.746 770.24 279.319 771.2 279.319C772.48 279.319 773.707 279.959 774.88 281.239C776.16 282.519 777.707 284.066 779.52 285.879C781.44 287.586 783.893 289.079 786.88 290.359C789.867 291.639 793.76 292.279 798.56 292.279C803.04 292.279 806.933 291.586 810.24 290.199C813.547 288.706 816.107 286.519 817.92 283.639C819.84 280.653 820.8 276.919 820.8 272.439C820.8 267.853 819.84 264.119 817.92 261.239C816 258.359 813.44 255.959 810.24 254.039C807.147 252.119 803.733 250.413 800 248.919C796.373 247.426 792.64 245.933 788.8 244.439C785.067 242.839 781.653 240.919 778.56 238.679C775.467 236.333 772.96 233.346 771.04 229.719C769.12 226.093 768.16 221.506 768.16 215.959C768.16 210.093 769.227 205.239 771.36 201.399C773.493 197.559 776.32 194.519 779.84 192.279C783.36 190.039 787.147 188.493 791.2 187.639C795.36 186.679 799.413 186.199 803.36 186.199C806.24 186.199 809.28 186.413 812.48 186.839C815.68 187.266 818.72 187.906 821.6 188.759C824.48 189.613 826.827 190.733 828.64 192.119C830.453 193.399 831.36 194.946 831.36 196.759C831.36 197.613 831.147 198.626 830.72 199.799C830.293 200.866 829.653 201.879 828.8 202.839C827.947 203.693 826.88 204.119 825.6 204.119C824.427 204.119 822.987 203.639 821.28 202.679C819.573 201.613 817.28 200.599 814.4 199.639C811.627 198.573 807.947 198.039 803.36 198.039C799.52 198.039 795.893 198.573 792.48 199.639C789.173 200.706 786.507 202.466 784.48 204.919C782.56 207.373 781.6 210.626 781.6 214.679C781.6 218.519 782.56 221.666 784.48 224.119C786.4 226.573 788.907 228.599 792 230.199C795.093 231.799 798.507 233.293 802.24 234.679C805.973 235.959 809.707 237.506 813.44 239.319C817.173 241.026 820.587 243.159 823.68 245.719C826.88 248.279 829.44 251.639 831.36 255.799C833.28 259.853 834.24 264.973 834.24 271.159C834.24 278.839 832.693 285.186 829.6 290.199C826.613 295.106 822.507 298.786 817.28 301.239C812.053 303.586 806.027 304.759 799.2 304.759Z" fill="#20447B"/>
</svg>
